<?xml version="1.0" standalone="no"?>
<!DOCTYPE svg PUBLIC "-//W3C//DTD SVG 20010904//EN"
 "http://www.w3.org/TR/2001/REC-SVG-20010904/DTD/svg10.dtd">
<svg version="1.0" xmlns="http://www.w3.org/2000/svg"
 width="500.000000pt" height="500.000000pt" viewBox="0 0 500.000000 500.000000"
 preserveAspectRatio="xMidYMid meet">

<g transform="translate(0.000000,500.000000) scale(0.100000,-0.100000)"
fill="#FFF" stroke="none">
<path d="M854 4830 c-320 -34 -596 -280 -671 -599 -17 -71 -18 -178 -18 -1736
0 -1855 -5 -1728 70 -1884 83 -174 198 -292 364 -375 141 -71 185 -78 554 -83
l328 -5 102 67 c156 104 260 188 401 325 154 150 261 276 365 430 318 471 473
977 473 1545 0 290 -37 546 -114 790 -25 81 -33 127 -39 240 -27 447 -119 801
-305 1165 l-65 130 -687 -1 c-378 -1 -719 -5 -758 -9z m776 -1530 l0 -150 410
0 410 0 0 -115 0 -115 -199 0 -200 0 -11 -57 c-59 -295 -158 -515 -324 -723
l-35 -45 27 -23 c52 -43 259 -179 343 -225 101 -55 278 -127 374 -152 39 -10
74 -22 79 -26 4 -4 -26 -50 -68 -102 l-77 -96 -67 25 c-255 95 -529 244 -709
385 -35 27 -66 49 -70 49 -5 0 -37 -25 -73 -56 -149 -128 -411 -276 -633 -358
-158 -59 -142 -62 -226 44 -40 51 -69 96 -64 100 4 4 37 15 73 25 98 26 253
90 370 151 101 54 294 177 355 227 l29 25 -51 56 c-112 122 -228 324 -290 503
-15 46 -30 83 -33 82 -3 0 -29 -48 -57 -107 -62 -126 -102 -179 -125 -166 -9
5 -53 40 -97 78 l-81 69 30 33 c62 72 170 252 170 285 0 9 -31 10 -120 6
l-120 -7 0 115 0 115 410 0 410 0 0 150 0 150 120 0 120 0 0 -150z"/>
<path d="M1408 2923 l-246 -3 20 -73 c26 -92 83 -247 115 -312 53 -107 186
-285 212 -285 12 0 105 130 148 205 73 127 153 361 153 448 l0 27 -77 -2 c-43
-2 -189 -4 -325 -5z"/>
<path d="M3300 4837 c0 -14 67 -152 117 -241 129 -230 254 -397 447 -595 190
-193 387 -346 608 -471 54 -30 87 -57 110 -89 40 -56 194 -235 238 -276 l31
-30 -3 525 c-5 587 -4 579 -79 737 -96 202 -285 357 -509 419 -57 15 -122 18
-512 21 -247 3 -448 2 -448 0z"/>
<path d="M3128 2959 c-33 -19 -16 -69 23 -69 18 0 49 25 49 40 0 13 -30 40
-43 40 -7 0 -20 -5 -29 -11z"/>
<path d="M3514 2929 c-17 -5 -39 -18 -50 -30 -25 -27 -25 -91 0 -118 17 -18
17 -21 3 -27 -25 -9 -39 -64 -26 -102 15 -43 60 -66 129 -66 69 0 114 23 129
66 13 37 -1 93 -25 102 -14 5 -13 8 0 28 21 30 20 91 -1 117 -10 12 -36 26
-58 31 -47 11 -60 11 -101 -1z m84 -55 c42 -29 23 -84 -29 -84 -53 0 -73 71
-25 90 29 12 29 12 54 -6z m22 -154 c25 -25 25 -32 2 -61 -13 -15 -30 -22 -52
-22 -31 0 -70 30 -70 54 0 20 42 49 70 49 17 0 39 -9 50 -20z"/>
<path d="M3230 2900 c0 -27 3 -30 30 -30 l30 0 0 -140 0 -140 35 0 35 0 0 170
0 170 -65 0 -65 0 0 -30z"/>
<path d="M4157 2823 c-52 -72 -77 -117 -77 -135 l0 -28 90 0 90 0 0 -35 c0
-33 2 -35 35 -35 33 0 35 2 35 35 0 31 3 35 25 35 21 0 25 5 25 30 0 25 -4 30
-25 30 -21 0 -25 5 -25 30 0 28 -3 30 -35 30 -32 0 -35 -2 -35 -30 0 -29 -2
-30 -45 -30 -25 0 -45 3 -45 6 0 4 15 27 33 53 18 25 50 70 71 99 l38 52 -39
0 c-37 0 -40 -3 -116 -107z"/>
<path d="M3870 2844 c-22 -10 -36 -11 -38 -4 -2 5 -17 10 -33 10 l-29 0 0
-130 0 -130 35 0 35 0 0 85 c0 72 3 88 20 105 11 11 29 20 40 20 11 0 29 -9
40 -20 17 -17 20 -33 20 -105 l0 -85 35 0 35 0 0 85 c0 86 -14 139 -41 162
-25 20 -82 24 -119 7z"/>
<path d="M4494 2841 c-92 -42 -99 -191 -10 -238 42 -23 126 -22 161 1 l27 18
-21 21 c-16 17 -23 19 -33 9 -21 -21 -82 -15 -106 11 -12 13 -22 26 -22 30 0
4 46 7 101 7 l101 0 -7 37 c-11 61 -31 89 -75 107 -51 20 -65 20 -116 -3z
m101 -56 c38 -37 32 -45 -40 -45 -39 0 -65 4 -65 10 0 17 47 60 65 60 9 0 27
-11 40 -25z"/>
<path d="M3120 2720 l0 -130 35 0 35 0 0 130 0 130 -35 0 -35 0 0 -130z"/>
<path d="M3320 2510 c0 -19 7 -20 100 -20 97 0 100 -1 100 -22 0 -13 -3 -33
-6 -45 -6 -22 -10 -23 -125 -23 -112 0 -119 -1 -119 -20 0 -18 7 -20 75 -20
l75 0 0 -30 c0 -30 -1 -30 -55 -30 -48 0 -55 -2 -55 -20 0 -19 7 -20 105 -20
l105 0 0 -55 c0 -48 2 -55 20 -55 18 0 20 7 20 75 l0 75 -50 0 c-49 0 -50 1
-50 30 l0 30 75 0 c68 0 75 2 75 20 0 15 -7 20 -27 20 l-28 0 3 65 4 65 -121
0 c-114 0 -121 -1 -121 -20z"/>
<path d="M3950 2340 c0 -183 1 -190 20 -190 19 0 20 7 20 190 0 183 -1 190
-20 190 -19 0 -20 -7 -20 -190z"/>
<path d="M4160 2510 c0 -17 -7 -20 -45 -20 -38 0 -45 -3 -45 -20 0 -19 7 -20
115 -20 108 0 115 1 115 20 0 17 -7 20 -50 20 -43 0 -50 3 -50 20 0 13 -7 20
-20 20 -13 0 -20 -7 -20 -20z"/>
<path d="M4330 2340 c0 -183 1 -190 20 -190 19 0 20 7 20 95 l0 95 30 0 c23 0
30 4 30 20 0 16 -7 20 -30 20 l-30 0 0 75 c0 68 -2 75 -20 75 -19 0 -20 -7
-20 -190z"/>
<path d="M3870 2465 c0 -52 -1 -55 -25 -55 -18 0 -25 -5 -25 -20 0 -15 7 -20
25 -20 l25 0 0 -105 c0 -98 1 -105 20 -105 19 0 20 7 20 180 0 173 -1 180 -20
180 -18 0 -20 -7 -20 -55z"/>
<path d="M3670 2480 c0 -16 7 -20 36 -20 l37 0 -6 -57 c-4 -41 -15 -69 -37
-101 -23 -33 -29 -47 -20 -56 8 -8 19 -3 39 20 16 17 31 38 34 45 4 10 13 4
32 -18 29 -36 33 -37 55 -23 12 8 10 14 -12 37 -32 34 -48 73 -48 119 0 31 2
34 30 34 23 0 30 4 30 20 0 18 -7 20 -85 20 -78 0 -85 -2 -85 -20z"/>
<path d="M4123 2420 c-27 -16 -33 -26 -33 -55 0 -30 5 -39 35 -56 53 -32 46
-49 -21 -49 -47 0 -55 -3 -50 -16 3 -9 6 -18 6 -20 0 -6 73 -5 168 3 66 5 82
9 82 22 0 13 -10 15 -55 13 -45 -3 -55 -1 -55 12 0 9 11 21 24 26 65 24 71
101 11 126 -46 19 -74 18 -112 -6z m102 -55 c0 -28 -2 -30 -39 -30 -46 0 -68
23 -46 50 9 11 25 15 49 13 33 -3 36 -6 36 -33z"/>
<path d="M4825 1802 c-91 -14 -250 -50 -345 -79 -563 -170 -1060 -513 -1403
-968 -33 -44 -124 -145 -201 -225 -123 -127 -306 -349 -306 -373 0 -4 366 -6
813 -5 910 4 858 0 1024 79 157 75 287 205 362 362 73 154 74 160 78 647 2
239 3 464 1 500 -3 59 -5 65 -23 62z"/>
</g>
</svg>
